<svg version="1.1" viewBox="0.0 0.0 311.0 132.750656167979" fill="none" stroke="none" stroke-linecap="square" stroke-miterlimit="10" xmlns:xlink="http://www.w3.org/1999/xlink" xmlns="http://www.w3.org/2000/svg"><clipPath id="p.0"><path d="m0 0l311.0 0l0 132.75066l-311.0 0l0 -132.75066z" clip-rule="nonzero"/></clipPath><g clip-path="url(#p.0)"><path fill="#000000" fill-opacity="0.0" d="m0 0l311.0 0l0 132.75066l-311.0 0z" fill-rule="evenodd"/><path fill="#000000" fill-opacity="0.0" d="m-8.107616 46.09186l309.79526 0l0 84.031494l-309.79526 0z" fill-rule="evenodd"/><path fill="#b7b7b7" d="m14.970509 106.88561q-3.515625 0 -6.140625 -1.515625q-2.609375 -1.53125 -4.078125 -4.21875q-1.453125 -2.703125 -1.453125 -6.171875q0 -3.71875 1.59375 -6.625q1.59375 -2.90625 4.28125 -4.578125q2.703125 -1.6875 5.953125 -1.6875q4.109375 0 6.421875 2.609375q2.328125 2.609375 2.328125 6.875q0 0.640625 -0.0625 1.078125q-0.046875 0.421875 -0.09375 0.578125l-16.109375 0q-0.046875 0.75 -0.046875 1.484375q0 2.828125 0.90625 5.265625q0.90625 2.421875 2.734375 3.859375q1.84375 1.4375 4.515625 1.4375q2.5 0 4.4375 -1.40625q1.953125 -1.421875 3.03125 -4.1875l1.28125 0.484375q-2.25 6.71875 -9.5 6.71875zm0.15625 -23.46875q-3.296875 0 -5.140625 2.34375q-1.84375 2.34375 -2.265625 6.234375l6.765625 0q2.40625 0 3.65625 -0.546875q1.25 -0.5625 1.703125 -1.390625q0.453125 -0.828125 0.453125 -1.625q0 -2.359375 -1.59375 -3.6875q-1.59375 -1.328125 -3.578125 -1.328125zm10.669754 23.03125l0 -1.21875l0.6875 -0.109375q2.453125 -0.375 4.03125 -1.671875q1.578125 -1.3125 2.859375 -2.75l4.6875 -5.28125l-7.515625 -8.265625q-1.28125 -1.390625 -2.109375 -2.046875q-0.828125 -0.671875 -1.953125 -0.78125l-0.46875 -0.0625l0 -1.21875l5.96875 0.15625l5.96875 -0.15625l0 1.21875l-0.84375 0.171875q-0.21875 0.046875 -0.75 0.21875q-0.53125 0.15625 -0.984375 0.453125q-0.453125 0.28125 -0.453125 0.8125q0 0.640625 0.90625 1.703125l4.84375 5.34375l4.75 -5.34375q0.75 -0.796875 0.75 -1.59375q0 -0.640625 -0.8125 -1.09375q-0.796875 -0.453125 -1.859375 -0.609375l-0.3125 -0.0625l0 -1.21875l6.1875 0.15625l4.046875 -0.15625l0 1.21875l-0.59375 0.0625q-2.1875 0.203125 -3.8125 1.546875q-1.625 1.328125 -3.0 2.875l-4.546875 5.125l6.453125 7.09375q1.234375 1.328125 2.609375 2.609375q1.390625 1.28125 2.9375 1.546875l0.59375 0.109375l0 1.171875l-5.28125 -0.109375l-6.609375 0.109375l0 -1.234375l0.84375 -0.09375q2.09375 -0.28125 2.09375 -1.1875q0 -0.265625 -0.140625 -0.65625q-0.140625 -0.40625 -0.5625 -0.828125l-5.546875 -6.078125l-4.75 5.484375q-0.359375 0.375 -0.609375 0.828125q-0.234375 0.453125 -0.234375 0.890625q0 0.53125 0.421875 0.984375q0.421875 0.453125 1.4375 0.5625l0.859375 0.09375l0 1.28125l-5.015625 -0.15625l-5.171875 0.15625zm28.950348 14.9375l0 -1.234375l0.859375 -0.09375q1.546875 -0.21875 2.375 -0.515625q0.828125 -0.296875 1.140625 -1.34375q0.328125 -1.03125 0.328125 -3.421875l0 -26.34375q0 -1.921875 -0.5625 -2.796875q-0.5625 -0.890625 -1.625 -1.125q-1.0625 -0.25 -2.515625 -0.25l0 -1.21875q2.1875 0 4.21875 -0.203125q2.03125 -0.21875 4.21875 -0.59375l-0.375 3.625q1.4843712 -1.703125 3.4374962 -2.734375q1.953125 -1.046875 4.34375 -1.046875q3.09375 0 5.515625 1.65625q2.4375 1.640625 3.875 4.46875q1.4375 2.828125 1.4375 6.34375q0 3.421875 -1.4375 6.21875q-1.4375 2.796875 -3.921875 4.453125q-2.484375 1.65625 -5.6875 1.65625q-2.234375 0 -4.109375 -0.9375q-1.859375 -0.9375 -3.0781212 -2.109375l0 10.9375q0 2.390625 0.3125 3.421875q0.328125 1.046875 1.1406212 1.34375q0.828125 0.296875 2.375 0.515625l0.859375 0.09375l0 1.234375l-6.562496 -0.15625l-6.5625 0.15625zm15.203121 -37.703125q-2.1875 0 -3.875 1.046875q-1.671875 1.03125 -2.8906212 2.53125l0 14.390625q0.9062462 1.390625 2.7187462 2.515625q1.8125 1.109375 4.0 1.109375q2.453125 0 4.046875 -1.40625q1.609375 -1.421875 2.40625 -3.84375q0.796875 -2.421875 0.796875 -5.46875q0 -3.09375 -0.796875 -5.546875q-0.796875 -2.453125 -2.375 -3.890625q-1.578125 -1.4375 -4.03125 -1.4375zm27.945557 23.203125q-3.515625 0 -6.140625 -1.515625q-2.609375 -1.53125 -4.078125 -4.21875q-1.453125 -2.703125 -1.453125 -6.171875q0 -3.71875 1.59375 -6.625q1.59375 -2.90625 4.28125 -4.578125q2.703125 -1.6875 5.953125 -1.6875q4.109375 0 6.421875 2.609375q2.328125 2.609375 2.328125 6.875q0 0.640625 -0.0625 1.078125q-0.046875 0.421875 -0.09375 0.578125l-16.109375 0q-0.046875 0.75 -0.046875 1.484375q0 2.828125 0.90625 5.265625q0.90625 2.421875 2.734375 3.859375q1.84375 1.4375 4.515625 1.4375q2.5 0 4.4375 -1.40625q1.953125 -1.421875 3.03125 -4.1875l1.28125 0.484375q-2.25 6.71875 -9.5 6.71875zm0.15625 -23.46875q-3.296875 0 -5.140625 2.34375q-1.84375 2.34375 -2.265625 6.234375l6.765625 0q2.40625 0 3.65625 -0.546875q1.25 -0.5625 1.703125 -1.390625q0.453125 -0.828125 0.453125 -1.625q0 -2.359375 -1.59375 -3.6875q-1.59375 -1.328125 -3.578125 -1.328125zm12.7030945 23.03125l0 -1.21875l0.84375 -0.109375q1.546875 -0.21875 2.375 -0.5q0.828125 -0.296875 1.140625 -1.328125q0.328125 -1.046875 0.328125 -3.453125l0 -11.09375q0 -2.078125 -0.5625 -3.03125q-0.5625 -0.96875 -1.625 -1.203125q-1.0625 -0.25 -2.5 -0.25l0 -1.21875q2.171875 0 4.203125 -0.15625q2.03125 -0.171875 4.21875 -0.484375l-0.59375 6.125l0.21875 0q1.171875 -3.5625 2.875 -5.0q1.703125 -1.4375 3.6875 -1.4375q2.234375 0 2.984375 1.09375q0.75 1.078125 0.75 2.09375q0 1.171875 -0.703125 1.921875q-0.6875 0.75 -1.859375 0.75q-1.125 0 -1.71875 -0.53125q-0.578125 -0.53125 -0.578125 -1.234375q0 -0.53125 0.125 -1.0q0.140625 -0.484375 0.140625 -0.75q0 -0.53125 -0.75 -0.53125q-0.734375 0 -1.5625 0.6875q-0.828125 0.6875 -1.421875 1.921875q-0.484375 1.015625 -0.90625 2.25q-0.421875 1.21875 -0.6875 2.65625l0 8.421875q0 2.40625 0.3125 3.453125q0.328125 1.03125 1.15625 1.328125q0.828125 0.28125 2.375 0.5l0.84375 0.109375l0 1.21875l-6.5625 -0.15625l-6.546875 0.15625zm20.904587 0l0 -1.21875l0.84375 -0.109375q1.546875 -0.21875 2.375 -0.5q0.828125 -0.296875 1.140625 -1.328125q0.328125 -1.046875 0.328125 -3.453125l0 -11.25q0 -2.78125 -1.15625 -3.546875q-1.140625 -0.78125 -3.171875 -0.78125l-0.359375 0l0 -1.21875q2.171875 0 4.203125 -0.125q2.03125 -0.140625 4.21875 -0.515625l0 17.4375q0 2.40625 0.3125 3.453125q0.328125 1.03125 1.15625 1.328125q0.828125 0.28125 2.375 0.5l0.84375 0.109375l0 1.21875l-6.5625 -0.15625l-6.546875 0.15625zm5.90625 -30.28125q-1.375 0 -2.1875 -0.953125q-0.796875 -0.96875 -0.796875 -2.3125q0 -1.375 0.796875 -2.3125q0.8125 -0.9375 2.1875 -0.9375q1.546875 0 2.265625 0.9375q0.71875 0.9375 0.71875 2.3125q0 1.34375 -0.71875 2.3125q-0.71875 0.953125 -2.265625 0.953125zm9.238907 30.28125l0 -1.21875l0.84375 -0.109375q1.546875 -0.21875 2.375 -0.5q0.828125 -0.296875 1.140625 -1.328125q0.328125 -1.046875 0.328125 -3.453125l0 -11.25q0 -1.921875 -0.5625 -2.84375q-0.5625 -0.9375 -1.625 -1.203125q-1.0625 -0.28125 -2.5 -0.28125l0 -1.21875q2.171875 0 4.203125 -0.125q2.03125 -0.140625 4.21875 -0.515625l0 4.15625q1.171875 -1.8125 3.28125 -3.140625q2.109375 -1.328125 4.875 -1.328125q2.828125 0 4.71875 1.203125q1.890625 1.1875 2.53125 3.75q1.125 -1.921875 3.3125 -3.4375q2.1875 -1.515625 5.171875 -1.515625q3.46875 0 5.515625 1.8125q2.046875 1.8125 2.046875 5.75l0 10.1875q0 2.34375 0.296875 3.390625q0.296875 1.03125 1.125 1.359375q0.828125 0.3125 2.375 0.53125l0.84375 0.109375l0 1.21875l-6.5 -0.15625l-6.03125 0.15625l0 -1.21875l0.859375 -0.109375q1.328125 -0.15625 2.046875 -0.46875q0.71875 -0.328125 0.984375 -1.359375q0.28125 -1.046875 0.28125 -3.453125l0 -11.09375q0 -2.34375 -1.28125 -3.703125q-1.28125 -1.359375 -3.625 -1.359375q-1.921875 0 -3.375 0.859375q-1.4375 0.84375 -2.375 2.125q-0.921875 1.28125 -1.34375 2.5q0 0.21875 0 0.484375l0 10.1875q0 2.40625 0.265625 3.453125q0.265625 1.03125 0.984375 1.328125q0.71875 0.28125 2.046875 0.5l0.859375 0.109375l0 1.21875l-6.03125 -0.15625l-6.015625 0.15625l0 -1.21875l0.84375 -0.109375q1.328125 -0.21875 2.046875 -0.5q0.734375 -0.296875 1.0 -1.328125q0.265625 -1.046875 0.265625 -3.453125l0 -11.09375q0 -2.34375 -1.28125 -3.703125q-1.28125 -1.359375 -3.625 -1.359375q-1.875 0 -3.3125 0.859375q-1.4375 0.84375 -2.40625 2.125q-0.953125 1.28125 -1.375 2.5l0 10.671875q0 2.40625 0.265625 3.453125q0.265625 1.03125 0.984375 1.328125q0.71875 0.28125 2.046875 0.5l0.859375 0.109375l0 1.21875l-6.03125 -0.15625l-6.546875 0.15625zm59.18683 0.4375q-3.515625 0 -6.140625 -1.515625q-2.609375 -1.53125 -4.078125 -4.21875q-1.453125 -2.703125 -1.453125 -6.171875q0 -3.71875 1.59375 -6.625q1.59375 -2.90625 4.28125 -4.578125q2.703125 -1.6875 5.953125 -1.6875q4.109375 0 6.421875 2.609375q2.328125 2.609375 2.328125 6.875q0 0.640625 -0.0625 1.078125q-0.046875 0.421875 -0.09375 0.578125l-16.109375 0q-0.046875 0.75 -0.046875 1.484375q0 2.828125 0.90625 5.265625q0.90625 2.421875 2.734375 3.859375q1.84375 1.4375 4.515625 1.4375q2.5 0 4.4375 -1.40625q1.953125 -1.421875 3.03125 -4.1875l1.28125 0.484375q-2.25 6.71875 -9.5 6.71875zm0.15625 -23.46875q-3.296875 0 -5.140625 2.34375q-1.84375 2.34375 -2.265625 6.234375l6.765625 0q2.40625 0 3.65625 -0.546875q1.25 -0.5625 1.703125 -1.390625q0.453125 -0.828125 0.453125 -1.625q0 -2.359375 -1.59375 -3.6875q-1.59375 -1.328125 -3.578125 -1.328125zm12.7030945 23.03125l0 -1.21875l0.84375 -0.109375q1.546875 -0.21875 2.375 -0.5q0.828125 -0.296875 1.140625 -1.328125q0.328125 -1.046875 0.328125 -3.453125l0 -11.25q0 -2.78125 -1.15625 -3.546875q-1.140625 -0.78125 -3.171875 -0.78125l-0.359375 0l0 -1.21875q2.171875 0 4.203125 -0.125q2.03125 -0.140625 4.21875 -0.515625l0 4.3125q1.21875 -1.8125 3.453125 -3.21875q2.25 -1.40625 5.234375 -1.40625q3.625 0 5.734375 1.84375q2.109375 1.828125 2.109375 5.234375l0 10.671875q0 2.40625 0.3125 3.453125q0.328125 1.03125 1.15625 1.328125q0.828125 0.28125 2.375 0.5l0.84376526 0.109375l0 1.21875l-6.5625153 -0.15625l-6.546875 0.15625l0 -1.21875l0.84375 -0.109375q1.546875 -0.21875 2.375 -0.5q0.828125 -0.296875 1.140625 -1.328125q0.328125 -1.046875 0.328125 -3.453125l0 -10.671875q0 -2.65625 -1.390625 -4.0625q-1.390625 -1.421875 -3.890625 -1.421875q-1.921875 0 -3.46875 0.890625q-1.546875 0.875 -2.5625 2.15625q-1.0 1.265625 -1.484375 2.4375l0 10.671875q0 2.40625 0.3125 3.453125q0.328125 1.03125 1.15625 1.328125q0.828125 0.28125 2.375 0.5l0.84375 0.109375l0 1.21875l-6.5625 -0.15625l-6.546875 0.15625zm41.10312 0.4375q-2.609375 0 -4.2343903 -1.578125q-1.625 -1.578125 -1.625 -5.140625l0 -15.796875l-3.953125 0l0 -1.328125l1.453125 -0.109375q2.171875 -0.15625 3.3125 -1.78125q1.1562653 -1.625 1.5312653 -4.5625l1.390625 0l0 6.453125l6.828125 0l0 1.328125l-6.828125 0l0 16.0q0 4.703125 3.296875 4.703125q1.390625 0 2.234375 -0.9375q0.859375 -0.9375 1.5625 -2.328125l1.171875 0.59375q-0.328125 0.796875 -0.78125 1.46875q-0.453125 0.65625 -0.875 1.140625q-0.90625 1.015625 -2.0625 1.4375q-1.140625 0.4375 -2.421875 0.4375zm17.984436 0q-2.03125 0 -3.453125 -0.453125q-1.40625 -0.453125 -2.203125 -0.828125q-0.859375 -0.4375 -1.0625 -0.4375q-0.21875 0 -0.359375 0.1875q-0.125 0.1875 -0.28125 0.9375l-1.234375 0l0.21875 -3.515625l0.15625 -4.53125l1.171875 0l0.046875 0.90625q0.109375 1.484375 0.984375 2.984375q0.890625 1.484375 2.4375 2.5q1.546875 1.015625 3.578125 1.015625q2.171875 0 3.5 -1.109375q1.34375 -1.125 1.34375 -3.109375q0 -1.703125 -1.359375 -2.875q-1.359375 -1.171875 -3.765625 -2.078125l-1.90625 -0.75q-2.78125 -1.0625 -4.203125 -2.65625q-1.40625 -1.609375 -1.40625 -4.109375q0 -2.140625 0.984375 -3.65625q1.0 -1.515625 2.625 -2.359375q1.625 -0.859375 3.484375 -0.859375q1.34375 0 2.265625 0.3125q0.9375 0.3125 1.578125 0.640625q0.53125 0.265625 0.90625 0.265625q0.53125 0 0.859375 -1.125l1.171875 0.0625l-0.21875 3.46875l0 3.71875l-1.234375 0q-0.359375 -2.5 -1.703125 -4.328125q-1.328125 -1.84375 -3.828125 -1.84375q-1.765625 0 -2.96875 1.125q-1.203125 1.109375 -1.203125 2.8125q0 1.65625 1.25 2.75q1.265625 1.09375 3.453125 1.9375l2.078125 0.8125q3.25 1.21875 4.5 2.953125q1.25 1.734375 1.25 4.140625q0 2.828125 -1.921875 4.96875q-1.90625 2.125 -5.53125 2.125z" fill-rule="nonzero"/><path fill="#000000" fill-opacity="0.0" d="m-8.107616 -11.332807l195.93701 0l0 93.732285l-195.93701 0z" fill-rule="evenodd"/><path fill="#3c78d8" d="m16.095509 57.219067q-3.484375 0 -6.3125 -1.890625q-2.8125 -1.90625 -4.46875 -5.1875q-1.65625 -3.28125 -1.65625 -7.265625q0 -3.984375 1.65625 -7.171875q1.65625 -3.203125 4.53125 -5.093752q2.890625 -1.90625 6.5 -1.90625q2.578125 0 4.71875 1.078125q2.15625 1.0625 3.5625 2.421877l0 -13.000002q0 -3.1875 -1.328125 -4.078124q-1.3125 -0.890625 -3.640625 -0.890625l-0.421875 0l0 -1.421875q2.515625 0 4.84375 -0.140625q2.328125 -0.15625 4.84375 -0.59375l0 37.78125q0 3.4375 1.3125 4.359375q1.328125 0.921875 3.78125 0.921875l0 1.40625l-2.515625 0q-1.359375 0 -2.65625 0.09375q-1.28125 0.09375 -2.875 0.390625l-0.796875 -4.28125q-1.65625 1.953125 -3.953125 3.21875q-2.296875 1.25 -5.125 1.25zm-7.53125 -14.34375q0 3.546875 0.875 6.375q0.890625 2.8125 2.703125 4.46875q1.8125 1.65625 4.578125 1.65625q2.625 0 4.5625 -1.1875q1.9375 -1.203125 3.34375 -2.921875l0 -16.546875q-1.046875 -1.59375 -3.140625 -2.875002q-2.078125 -1.296875 -4.59375 -1.296875q-2.8125 0 -4.65625 1.6250019q-1.84375 1.625 -2.765625 4.421875q-0.90625 2.78125 -0.90625 6.28125zm27.470734 13.859375l0 -1.421875l0.984375 -0.109375q1.78125 -0.25 2.71875 -0.578125q0.953125 -0.34375 1.3125 -1.53125q0.375 -1.203125 0.375 -3.96875l0 -12.9375q0 -3.1875 -1.3125 -4.078125q-1.3125 -0.8906269 -3.65625 -0.8906269l-0.421875 0l0 -1.40625q2.515625 0 4.84375 -0.15625q2.328125 -0.15625 4.84375 -0.578125l0 20.046877q0 2.765625 0.359375 3.96875q0.375 1.1875 1.328125 1.53125q0.953125 0.328125 2.734375 0.578125l0.96875 0.109375l0 1.421875l-7.53125 -0.1875l-7.546875 0.1875zm6.8125 -34.84375q-1.59375 0 -2.515625 -1.09375q-0.921875 -1.109375 -0.921875 -2.640625q0 -1.59375 0.921875 -2.656249q0.921875 -1.078125 2.515625 -1.078125q1.78125 0 2.609375 1.078125q0.828125 1.062499 0.828125 2.656249q0 1.53125 -0.828125 2.640625q-0.828125 1.09375 -2.609375 1.09375zm24.339077 26.562502q-2.078125 0 -4.046871 -0.609375q-1.65625 0.359375 -3.09375 1.25q-1.4375 0.890625 -1.4375 2.359375q0 1.296875 0.90625 1.9375q0.921875 0.640625 2.390625 0.859375q1.484375 0.21875 3.2031212 0.328125l2.6875 0.125q3.875 0.1875 7.0 0.828125q3.125 0.640625 4.984375 2.484375q1.875 1.84375 1.875 5.640625q0 3.4999962 -2.0625 5.921871q-2.046875 2.421875 -5.328125 3.703125q-3.28125 1.296875 -7.078125 1.296875q-3.7968712 0 -7.203121 -1.046875q-3.40625 -1.03125 -5.53125 -3.1875q-2.109375 -2.140625 -2.109375 -5.515625q0 -1.9687462 0.953125 -3.2656212q0.953125 -1.28125 2.484375 -1.28125q1.046875 0 1.78125 0.578125q0.734375 0.59375 0.734375 1.765625q0 1.03125 -0.375 1.6718712q-0.359375 0.65625 -0.765625 1.328125q-0.390625 0.671875 -0.390625 1.71875q0 2.078125 1.4375 3.328125q1.4375 1.265625 3.796875 1.8125q2.3749962 0.5625 5.187496 0.5625q3.125 0 5.765625 -0.921875q2.640625 -0.921875 4.265625 -2.734375q1.625 -1.796875 1.625 -4.4375q0 -2.7656212 -2.1875 -4.031246q-2.171875 -1.25 -6.703125 -1.5l-6.265621 -0.296875q-1.828125 -0.125 -3.890625 -0.5q-2.046875 -0.359375 -3.46875 -1.5q-1.40625 -1.125 -1.40625 -3.40625q0 -2.390625 1.984375 -4.15625q2.0 -1.78125 4.453125 -2.453125q-2.453125 -1.296875 -3.984375 -3.5q-1.53125 -2.203125 -1.53125 -5.03125q0 -2.828125 1.5 -5.03125q1.5 -2.203127 4.078125 -3.515627q2.578125 -1.328125 5.765621 -1.328125q3.6875 0 6.5625 1.78125q1.296875 -1.78125 3.125 -2.546875q1.84375 -0.765625 3.6875 -0.765625q1.890625 0 3.265625 0.953125q1.390625 0.953125 1.390625 2.546875q0 1.28125 -0.828125 1.9843769q-0.828125 0.703125 -1.8125 0.703125q-2.265625 0 -2.75 -2.578127q-0.125 -0.734375 -0.53125 -1.21875q-0.390625 -0.484375 -1.1875 -0.484375q-0.984375 0 -1.8125 0.703125q-0.828125 0.703125 -1.375 1.5q1.65625 1.3437519 2.625 3.250002q0.984375 1.90625 0.984375 4.046875q0 2.765625 -1.5 5.0q-1.5 2.234375 -4.078125 3.5625q-2.578125 1.3125 -5.765625 1.3125zm0 -1.53125q3.625 0 5.125 -2.390625q1.5 -2.390625 1.5 -5.953125q0 -3.5625 -1.5 -5.953125q-1.5 -2.390627 -5.125 -2.390627q-3.5624962 0 -5.093746 2.390627q-1.53125 2.390625 -1.53125 5.953125q0 3.5625 1.53125 5.953125q1.53125 2.390625 5.093746 2.390625zm20.24144 9.8125l0 -1.421875l0.984375 -0.109375q1.78125 -0.25 2.71875 -0.578125q0.953125 -0.34375 1.3125 -1.53125q0.375 -1.203125 0.375 -3.96875l0 -12.9375q0 -3.1875 -1.3125 -4.078125q-1.3125 -0.8906269 -3.65625 -0.8906269l-0.421875 0l0 -1.40625q2.515625 0 4.84375 -0.15625q2.328125 -0.15625 4.84375 -0.578125l0 20.046877q0 2.765625 0.359375 3.96875q0.375 1.1875 1.328125 1.53125q0.953125 0.328125 2.734375 0.578125l0.96875 0.109375l0 1.421875l-7.53125 -0.1875l-7.546875 0.1875zm6.8125 -34.84375q-1.59375 0 -2.515625 -1.09375q-0.921875 -1.109375 -0.921875 -2.640625q0 -1.59375 0.921875 -2.656249q0.921875 -1.078125 2.515625 -1.078125q1.78125 0 2.609375 1.078125q0.828125 1.062499 0.828125 2.656249q0 1.53125 -0.828125 2.640625q-0.828125 1.09375 -2.609375 1.09375zm22.010956 35.328125q-3.0 0 -4.875 -1.796875q-1.875 -1.8125 -1.875 -5.921875l0 -18.156252l-4.53125 0l0 -1.53125l1.65625 -0.125q2.515625 -0.1875 3.828125 -2.046875q1.3125 -1.875 1.75 -5.25l1.59375 0l0 7.421875l7.84375 0l0 1.53125l-7.84375 0l0 18.390627q0 5.40625 3.796875 5.40625q1.59375 0 2.578125 -1.078125q0.984375 -1.078125 1.78125 -2.671875l1.34375 0.671875q-0.359375 0.921875 -0.890625 1.6875q-0.515625 0.765625 -1.0 1.328125q-1.046875 1.15625 -2.375 1.640625q-1.3125 0.5 -2.78125 0.5zm16.926926 0q-2.9375 0 -4.875 -1.5q-1.9375 -1.5 -1.9375 -4.203125q0 -2.703125 2.390625 -4.8125q2.390625 -2.109375 5.59375 -3.828125q2.390625 -1.359375 4.78125 -2.328125q2.390625 -0.984375 4.109375 -1.65625l0 -1.96875q0 -3.375 -1.265625 -5.031252q-1.25 -1.65625 -4.75 -1.65625q-1.65625 0 -3.25 0.4375q-1.59375 0.421875 -1.59375 1.5937519q0 0.234375 0.09375 0.546875q0.09375 0.3125 0.15625 0.609375q0.296875 0.796875 0.296875 1.65625q0 1.171875 -0.828125 1.8125q-0.828125 0.640625 -1.984375 0.640625q-1.109375 0 -1.84375 -0.828125q-0.734375 -0.828125 -0.734375 -1.984375q0 -2.21875 1.6875 -3.531252q1.6875 -1.3125 4.140625 -1.890625q2.453125 -0.59375 4.71875 -0.59375q4.90625 0 7.171875 2.265625q2.265625 2.265627 2.265625 7.421877l0 11.046875q0 2.6875 0.390625 4.171875q0.40625 1.46875 1.828125 1.46875q0.921875 0 1.59375 -0.671875q0.671875 -0.6875 0.921875 -1.484375l1.09375 0.4375q-0.484375 1.78125 -1.75 2.828125q-1.25 1.03125 -3.453125 1.03125q-2.703125 0 -3.71875 -1.5625q-1.015625 -1.5625 -1.125 -4.140625q-1.71875 2.765625 -4.359375 4.234375q-2.640625 1.46875 -5.765625 1.46875zm-2.03125 -6.0q0 1.703125 1.015625 2.71875q1.015625 1.015625 2.984375 1.015625q1.765625 0 3.390625 -0.859375q1.625 -0.859375 2.84375 -2.171875q1.234375 -1.328125 1.859375 -2.859375l0 -8.953125q-2.03125 0.859375 -4.15625 2.0q-2.109375 1.125 -3.921875 2.546875q-1.796875 1.40625 -2.90625 3.03125q-1.109375 1.625 -1.109375 3.53125zm23.128937 5.515625l0 -1.421875l0.984375 -0.109375q1.78125 -0.25 2.71875 -0.578125q0.953125 -0.34375 1.3125 -1.53125q0.375 -1.203125 0.375 -3.96875l0 -29.921877q0 -3.1875 -1.3125 -4.078124q-1.3125 -0.890625 -3.65625 -0.890625l-0.421875 0l0 -1.421875q2.515625 0 4.84375 -0.140625q2.328125 -0.15625 4.84375 -0.59375l0 37.046875q0 2.765625 0.359375 3.96875q0.375 1.1875 1.328125 1.53125q0.953125 0.328125 2.734375 0.578125l0.96875 0.109375l0 1.421875l-7.53125 -0.1875l-7.546875 0.1875z" fill-rule="nonzero"/><path fill="#b7b7b7" d="m235.01 43.27034l0 0c0 -3.9573135 3.2080383 -7.165352 7.1653595 -7.165352l0 0c1.9003754 0 3.7229004 0.75491714 5.0666656 2.0986824c1.3437653 1.3437653 2.0986938 3.1663017 2.0986938 5.0666695l0 0c0 3.9573174 -3.2080383 7.1653557 -7.1653595 7.1653557l0 0c-3.9573212 0 -7.1653595 -3.2080383 -7.1653595 -7.1653557z" fill-rule="evenodd"/><path fill="#b7b7b7" d="m249.34071 9.645669l0 0c0 -2.043888 1.6568909 -3.700787 3.7007751 -3.700787l0 0c0.9815216 0 1.922821 0.38990307 2.6168518 1.0839357c0.694046 0.6940322 1.0839386 1.6353421 1.0839386 2.6168513l0 0c0 2.043889 -1.6568909 3.7007875 -3.7007904 3.7007875l0 0c-2.0438843 0 -3.7007751 -1.6568985 -3.7007751 -3.7007875z" fill-rule="evenodd"/><path fill="#b7b7b7" d="m269.16486 70.23097l0 0c0 -2.043892 1.6568909 -3.7007904 3.7007751 -3.7007904l0 0c0.98150635 0 1.922821 0.38990784 2.6168518 1.0839386c0.69403076 0.69403076 1.0839539 1.6353378 1.0839539 2.6168518l0 0c0 2.0438843 -1.6569214 3.7007828 -3.7008057 3.7007828l0 0c-2.0438843 0 -3.7007751 -1.6568985 -3.7007751 -3.7007828z" fill-rule="evenodd"/><path fill="#b7b7b7" d="m232.79527 2.7454069l3.8425293 0l0 21.19685l-3.8425293 0z" fill-rule="evenodd"/><path fill="#b7b7b7" d="m205.75073 75.75604l27.062927 -51.93701l3.8347015 0l-27.062927 51.93701z" fill-rule="evenodd"/><path fill="#b7b7b7" d="m259.05658 2.7463257l3.779541 0l0 21.19685l-3.779541 0z" fill-rule="evenodd"/><path fill="#b7b7b7" d="m304.43765 107.37664l-41.671753 -83.55905l-3.7455444 0l41.671753 83.55905z" fill-rule="evenodd"/><path fill="#b7b7b7" d="m294.12534 128.51099l6.5512085 -21.196846l3.7479858 0l-6.5512085 21.196846z" fill-rule="evenodd"/><path fill="#b7b7b7" d="m195.93373 125.14567l101.00786 0l0 3.370079l-101.00786 0z" fill-rule="evenodd"/><path fill="#b7b7b7" d="m199.23294 128.49492l-4.456726 -13.889763l-3.7637482 0l4.456726 13.889763z" fill-rule="evenodd"/><path fill="#3c78d8" d="m251.1806 58.519684l0 0c0 -4.966213 4.0259094 -8.992126 8.992126 -8.992126l0 0c2.3848572 0 4.6720276 0.9473839 6.3583984 2.6337357c1.6863403 1.686348 2.633728 3.9735336 2.633728 6.358391l0 0c0 4.966217 -4.0259094 8.992126 -8.992126 8.992126l0 0c-4.966217 0 -8.992126 -4.0259094 -8.992126 -8.992126z" fill-rule="evenodd"/><path fill="#3c78d8" d="m238.96313 21.024935l0 0c0 -2.4613647 1.9953308 -4.4566936 4.4566956 -4.4566936l0 0c1.1819763 0 2.315567 0.46954346 3.151352 1.305336c0.8357849 0.83579063 1.3053284 1.969368 1.3053284 3.1513577l0 0c0 2.4613628 -1.9953156 4.4566917 -4.4566803 4.4566917l0 0c-2.4613647 0 -4.4566956 -1.9953289 -4.4566956 -4.4566917z" fill-rule="evenodd"/><path fill="#3c78d8" d="m220.95226 65.53018l0 0c0 -3.270218 2.6510468 -5.921257 5.9212646 -5.921257l0 0c1.5704193 0 3.0765076 0.62384415 4.186966 1.7342949c1.1104431 1.1104507 1.7342834 2.6165466 1.7342834 4.186962l0 0c0 3.2702255 -2.6510315 5.9212646 -5.9212494 5.9212646l0 0c-3.270218 0 -5.9212646 -2.6510391 -5.9212646 -5.9212646z" fill-rule="evenodd"/><path fill="#3c78d8" d="m295.9449 115.54068l-2.4596252 7.559059l-93.915375 0l-2.4596405 -7.559059z" fill-rule="evenodd"/><path fill="#3c78d8" d="m204.74997 120.749504c-3.9580078 -0.4584427 -5.186783 -1.6889801 -6.249344 -2.8766403c-1.0625458 -1.1876678 -2.188095 -3.2077866 -0.12597656 -4.249344c2.0621185 -1.0415573 7.4361267 -2.1666718 12.498688 -2.0c5.062546 0.16666412 13.126419 3.1666641 17.876633 3.0c4.7502136 -0.16667175 6.2497864 -4.1041183 10.62468 -4.0c4.374878 0.10411072 9.728775 4.458 15.624664 4.624672c5.8958893 0.16666412 13.813217 -2.8748932 19.750656 -3.624672c5.937439 -0.7497864 12.499115 -1.7283478 15.874023 -0.8740158c3.374878 0.85432434 6.895874 4.437439 4.3753357 6.0c-2.5205688 1.5625534 -7.373596 2.7296524 -19.498688 3.375328c-12.125122 0.645668 -41.460205 0.3945694 -53.251984 0.49868774c-11.791779 0.10411072 -13.54068 0.5844269 -17.498688 0.12598419z" fill-rule="evenodd"/></g></svg>