<?xml version="1.0" encoding="UTF-8" standalone="no"?>
<svg
   version="1.1"
   viewBox="0 0 341.01205 178.87095"
   fill="none"
   stroke="none"
   stroke-linecap="square"
   stroke-miterlimit="10"
   id="svg177"
   sodipodi:docname="logo.svg"
   width="341.01205"
   height="178.87094"
   inkscape:version="1.2.1 (9c6d41e, 2022-07-14)"
   xmlns:inkscape="http://www.inkscape.org/namespaces/inkscape"
   xmlns:sodipodi="http://sodipodi.sourceforge.net/DTD/sodipodi-0.dtd"
   xmlns="http://www.w3.org/2000/svg"
   xmlns:svg="http://www.w3.org/2000/svg">
  <defs
     id="defs181" />
  <sodipodi:namedview
     id="namedview179"
     pagecolor="#ffffff"
     bordercolor="#000000"
     borderopacity="0.25"
     inkscape:showpageshadow="2"
     inkscape:pageopacity="0.0"
     inkscape:pagecheckerboard="0"
     inkscape:deskcolor="#d1d1d1"
     showgrid="false"
     inkscape:zoom="2.1744078"
     inkscape:cx="128.77069"
     inkscape:cy="123.25195"
     inkscape:window-width="1335"
     inkscape:window-height="916"
     inkscape:window-x="177"
     inkscape:window-y="38"
     inkscape:window-maximized="0"
     inkscape:current-layer="svg177" />
  <clipPath
     id="p.0">
    <path
       d="M 0,0 H 311 V 132.75066 H 0 Z"
       clip-rule="nonzero"
       id="path132" />
  </clipPath>
  <g
     clip-path="url(#p.0)"
     id="g175"
     transform="translate(15.006031,20.990609)">
    <path
       fill="#000000"
       fill-opacity="0"
       d="M 0,0 H 311 V 132.75066 H 0 Z"
       fill-rule="evenodd"
       id="path135" />
    <path
       fill="#000000"
       fill-opacity="0"
       d="M -8.107616,46.09186 H 301.68764 v 84.03149 H -8.107616 Z"
       fill-rule="evenodd"
       id="path137" />
    <path
       fill="#b7b7b7"
       d="m 14.970509,106.88561 q -3.515625,0 -6.140625,-1.51562 -2.609375,-1.53125 -4.078125,-4.21875 -1.453125,-2.70313 -1.453125,-6.17188 0,-3.71875 1.59375,-6.625 1.59375,-2.90625 4.28125,-4.578125 2.703125,-1.6875 5.953125,-1.6875 4.109375,0 6.421875,2.609375 2.328125,2.609375 2.328125,6.875 0,0.640625 -0.0625,1.078125 -0.04687,0.421875 -0.09375,0.578125 H 7.611134 q -0.046875,0.75 -0.046875,1.484375 0,2.828125 0.90625,5.265625 0.90625,2.42188 2.734375,3.85938 1.84375,1.4375 4.515625,1.4375 2.5,0 4.4375,-1.40625 1.953125,-1.42188 3.03125,-4.187505 l 1.28125,0.484375 q -2.25,6.71875 -9.5,6.71875 z m 0.15625,-23.46875 q -3.296875,0 -5.140625,2.34375 -1.84375,2.34375 -2.265625,6.234375 h 6.765625 q 2.40625,0 3.65625,-0.546875 1.25,-0.5625 1.703125,-1.390625 0.453125,-0.828125 0.453125,-1.625 0,-2.359375 -1.59375,-3.6875 -1.59375,-1.328125 -3.578125,-1.328125 z m 10.669754,23.03125 v -1.21875 l 0.6875,-0.10937 q 2.453125,-0.375 4.03125,-1.67188 1.578125,-1.3125 2.859375,-2.75 l 4.6875,-5.28125 -7.515625,-8.265625 Q 29.265263,85.76061 28.437138,85.10436 27.609013,84.432485 26.484013,84.32311 l -0.46875,-0.0625 v -1.21875 l 5.96875,0.15625 5.96875,-0.15625 v 1.21875 l -0.84375,0.171875 q -0.21875,0.04687 -0.75,0.21875 -0.53125,0.15625 -0.984375,0.453125 -0.453125,0.28125 -0.453125,0.8125 0,0.640625 0.90625,1.703125 l 4.84375,5.34375 4.75,-5.34375 q 0.75,-0.796875 0.75,-1.59375 0,-0.640625 -0.8125,-1.09375 -0.796875,-0.453125 -1.859375,-0.609375 l -0.3125,-0.0625 v -1.21875 l 6.1875,0.15625 4.046875,-0.15625 v 1.21875 l -0.59375,0.0625 q -2.1875,0.203125 -3.8125,1.546875 -1.625,1.328125 -3,2.875 l -4.546875,5.125 6.453125,7.093755 q 1.234375,1.32812 2.609375,2.60937 1.390625,1.28125 2.9375,1.54688 l 0.59375,0.10937 v 1.17188 l -5.28125,-0.10938 -6.609375,0.10938 v -1.23438 l 0.84375,-0.0937 q 2.09375,-0.28125 2.09375,-1.1875 0,-0.26562 -0.140625,-0.65625 -0.140625,-0.40625 -0.5625,-0.82812 l -5.546875,-6.07813 -4.75,5.48438 q -0.359375,0.375 -0.609375,0.82812 -0.234375,0.45313 -0.234375,0.89063 0,0.53125 0.421875,0.98437 0.421875,0.45313 1.4375,0.5625 l 0.859375,0.0937 v 1.28125 l -5.015625,-0.15625 z m 28.950348,14.9375 v -1.23437 l 0.859375,-0.0937 q 1.546875,-0.21875 2.375,-0.51563 0.828125,-0.29687 1.140625,-1.34375 0.328125,-1.03125 0.328125,-3.42187 V 88.432485 q 0,-1.921875 -0.5625,-2.796875 -0.5625,-0.890625 -1.625,-1.125 -1.0625,-0.25 -2.515625,-0.25 v -1.21875 q 2.1875,0 4.21875,-0.203125 2.03125,-0.21875 4.21875,-0.59375 l -0.375,3.625 q 1.484371,-1.703125 3.437496,-2.734375 1.953125,-1.046875 4.34375,-1.046875 3.09375,0 5.515625,1.65625 2.4375,1.640625 3.875,4.46875 1.4375,2.828125 1.4375,6.34375 0,3.421875 -1.4375,6.218755 -1.4375,2.79687 -3.921875,4.45312 -2.484375,1.65625 -5.6875,1.65625 -2.234375,0 -4.109375,-0.9375 -1.859375,-0.9375 -3.078121,-2.10937 v 10.9375 q 0,2.39062 0.3125,3.42187 0.328125,1.04688 1.140621,1.34375 0.828125,0.29688 2.375,0.51563 l 0.859375,0.0937 v 1.23437 l -6.562496,-0.15625 z M 69.949982,83.682485 q -2.1875,0 -3.875,1.046875 -1.671875,1.03125 -2.890621,2.53125 v 14.39063 q 0.906246,1.39062 2.718746,2.51562 1.8125,1.10938 4,1.10938 2.453125,0 4.046875,-1.40625 1.609375,-1.42188 2.40625,-3.84375 0.796875,-2.42188 0.796875,-5.468755 0,-3.09375 -0.796875,-5.546875 -0.796875,-2.453125 -2.375,-3.890625 -1.578125,-1.4375 -4.03125,-1.4375 z m 27.945557,23.203125 q -3.515625,0 -6.140625,-1.51562 -2.609375,-1.53125 -4.078125,-4.21875 -1.453125,-2.70313 -1.453125,-6.17188 0,-3.71875 1.59375,-6.625 1.59375,-2.90625 4.28125,-4.578125 2.703125,-1.6875 5.953125,-1.6875 4.109371,0 6.421871,2.609375 2.32813,2.609375 2.32813,6.875 0,0.640625 -0.0625,1.078125 -0.0469,0.421875 -0.0937,0.578125 H 90.536164 q -0.04687,0.75 -0.04687,1.484375 0,2.828125 0.90625,5.265625 0.90625,2.42188 2.734375,3.85938 1.84375,1.4375 4.515625,1.4375 2.500006,0 4.437506,-1.40625 1.95311,-1.42188 3.03125,-4.187505 l 1.28125,0.484375 q -2.25,6.71875 -9.500006,6.71875 z m 0.15625,-23.46875 q -3.296875,0 -5.140625,2.34375 -1.84375,2.34375 -2.265625,6.234375 h 6.765625 q 2.40625,0 3.656246,-0.546875 1.25,-0.5625 1.70313,-1.390625 0.45312,-0.828125 0.45312,-1.625 0,-2.359375 -1.59375,-3.6875 -1.59375,-1.328125 -3.578121,-1.328125 z m 12.703091,23.03125 v -1.21875 l 0.84375,-0.10937 q 1.54688,-0.21875 2.375,-0.5 0.82813,-0.29688 1.14063,-1.32813 0.32812,-1.04687 0.32812,-3.453125 v -11.09375 q 0,-2.078125 -0.5625,-3.03125 -0.5625,-0.96875 -1.625,-1.203125 -1.0625,-0.25 -2.5,-0.25 v -1.21875 q 2.17188,0 4.20313,-0.15625 2.03125,-0.171875 4.21875,-0.484375 l -0.59375,6.125 h 0.21875 q 1.17187,-3.5625 2.875,-5 1.70312,-1.4375 3.6875,-1.4375 2.23437,0 2.98437,1.09375 0.75,1.078125 0.75,2.09375 0,1.171875 -0.70312,1.921875 -0.6875,0.75 -1.85938,0.75 -1.125,0 -1.71875,-0.53125 -0.57812,-0.53125 -0.57812,-1.234375 0,-0.53125 0.125,-1 0.14062,-0.484375 0.14062,-0.75 0,-0.53125 -0.75,-0.53125 -0.73437,0 -1.5625,0.6875 -0.82812,0.6875 -1.42187,1.921875 -0.48438,1.015625 -0.90625,2.25 -0.42188,1.21875 -0.6875,2.65625 v 8.421875 q 0,2.406255 0.3125,3.453125 0.32812,1.03125 1.15625,1.32813 0.82812,0.28125 2.375,0.5 l 0.84375,0.10937 v 1.21875 l -6.5625,-0.15625 z m 20.90459,0 v -1.21875 l 0.84375,-0.10937 q 1.54688,-0.21875 2.375,-0.5 0.82813,-0.29688 1.14063,-1.32813 0.32812,-1.04687 0.32812,-3.453125 v -11.25 q 0,-2.78125 -1.15625,-3.546875 -1.14062,-0.78125 -3.17187,-0.78125 h -0.35938 v -1.21875 q 2.17188,0 4.20313,-0.125 2.03125,-0.140625 4.21875,-0.515625 v 17.4375 q 0,2.406255 0.3125,3.453125 0.32812,1.03125 1.15625,1.32813 0.82812,0.28125 2.375,0.5 l 0.84375,0.10937 v 1.21875 l -6.5625,-0.15625 z m 5.90625,-30.28125 q -1.375,0 -2.1875,-0.953125 -0.79687,-0.96875 -0.79687,-2.3125 0,-1.375 0.79687,-2.3125 0.8125,-0.9375 2.1875,-0.9375 1.54688,0 2.26563,0.9375 0.71875,0.9375 0.71875,2.3125 0,1.34375 -0.71875,2.3125 -0.71875,0.953125 -2.26563,0.953125 z m 9.23891,30.28125 v -1.21875 l 0.84375,-0.10937 q 1.54687,-0.21875 2.375,-0.5 0.82812,-0.29688 1.14062,-1.32813 0.32813,-1.04687 0.32813,-3.453125 v -11.25 q 0,-1.921875 -0.5625,-2.84375 -0.5625,-0.9375 -1.625,-1.203125 -1.0625,-0.28125 -2.5,-0.28125 v -1.21875 q 2.17187,0 4.20312,-0.125 2.03125,-0.140625 4.21875,-0.515625 v 4.15625 q 1.17188,-1.8125 3.28125,-3.140625 2.10938,-1.328125 4.875,-1.328125 2.82813,0 4.71875,1.203125 1.89063,1.1875 2.53125,3.75 1.125,-1.921875 3.3125,-3.4375 2.1875,-1.515625 5.17188,-1.515625 3.46875,0 5.51562,1.8125 2.04688,1.8125 2.04688,5.75 v 10.1875 q 0,2.343755 0.29687,3.390625 0.29688,1.03125 1.125,1.35938 0.82813,0.3125 2.375,0.53125 l 0.84375,0.10937 v 1.21875 l -6.5,-0.15625 -6.03125,0.15625 v -1.21875 l 0.85938,-0.10937 q 1.32812,-0.15625 2.04687,-0.46875 0.71875,-0.32813 0.98438,-1.35938 0.28125,-1.04687 0.28125,-3.453125 v -11.09375 q 0,-2.34375 -1.28125,-3.703125 -1.28125,-1.359375 -3.625,-1.359375 -1.92188,0 -3.375,0.859375 -1.4375,0.84375 -2.375,2.125 -0.92188,1.28125 -1.34375,2.5 0,0.21875 0,0.484375 v 10.1875 q 0,2.406255 0.26562,3.453125 0.26563,1.03125 0.98438,1.32813 0.71875,0.28125 2.04687,0.5 l 0.85938,0.10937 v 1.21875 l -6.03125,-0.15625 -6.01563,0.15625 v -1.21875 l 0.84375,-0.10937 q 1.32813,-0.21875 2.04688,-0.5 0.73437,-0.29688 1,-1.32813 0.26562,-1.04687 0.26562,-3.453125 v -11.09375 q 0,-2.34375 -1.28125,-3.703125 -1.28125,-1.359375 -3.625,-1.359375 -1.875,0 -3.3125,0.859375 -1.4375,0.84375 -2.40625,2.125 -0.95312,1.28125 -1.375,2.5 v 10.671875 q 0,2.406255 0.26563,3.453125 0.26562,1.03125 0.98437,1.32813 0.71875,0.28125 2.04688,0.5 l 0.85937,0.10937 v 1.21875 l -6.03125,-0.15625 z m 59.18683,0.4375 q -3.51563,0 -6.14063,-1.51562 -2.60937,-1.53125 -4.07812,-4.21875 -1.45313,-2.70313 -1.45313,-6.17188 0,-3.71875 1.59375,-6.625 1.59375,-2.90625 4.28125,-4.578125 2.70313,-1.6875 5.95313,-1.6875 4.10937,0 6.42187,2.609375 2.32813,2.609375 2.32813,6.875 0,0.640625 -0.0625,1.078125 -0.0469,0.421875 -0.0937,0.578125 h -16.10938 q -0.0469,0.75 -0.0469,1.484375 0,2.828125 0.90625,5.265625 0.90625,2.42188 2.73437,3.85938 1.84375,1.4375 4.51563,1.4375 2.5,0 4.4375,-1.40625 1.95312,-1.42188 3.03125,-4.187505 l 1.28125,0.484375 q -2.25,6.71875 -9.5,6.71875 z m 0.15625,-23.46875 q -3.29688,0 -5.14063,2.34375 -1.84375,2.34375 -2.26562,6.234375 h 6.76562 q 2.40625,0 3.65625,-0.546875 1.25,-0.5625 1.70313,-1.390625 0.45312,-0.828125 0.45312,-1.625 0,-2.359375 -1.59375,-3.6875 -1.59375,-1.328125 -3.57812,-1.328125 z m 12.70309,23.03125 v -1.21875 l 0.84375,-0.10937 q 1.54688,-0.21875 2.375,-0.5 0.82813,-0.29688 1.14063,-1.32813 0.32812,-1.04687 0.32812,-3.453125 v -11.25 q 0,-2.78125 -1.15625,-3.546875 -1.14062,-0.78125 -3.17187,-0.78125 h -0.35938 v -1.21875 q 2.17188,0 4.20313,-0.125 2.03125,-0.140625 4.21875,-0.515625 v 4.3125 q 1.21875,-1.8125 3.45312,-3.21875 2.25,-1.40625 5.23438,-1.40625 3.625,0 5.73437,1.84375 2.10938,1.828125 2.10938,5.234375 v 10.671875 q 0,2.406255 0.3125,3.453125 0.32812,1.03125 1.15625,1.32813 0.82812,0.28125 2.375,0.5 l 0.84376,0.10937 v 1.21875 l -6.56251,-0.15625 -6.54688,0.15625 v -1.21875 l 0.84375,-0.10937 q 1.54688,-0.21875 2.375,-0.5 0.82813,-0.29688 1.14063,-1.32813 0.32812,-1.04687 0.32812,-3.453125 V 89.16686 q 0,-2.65625 -1.39062,-4.0625 -1.39063,-1.421875 -3.89063,-1.421875 -1.92187,0 -3.46875,0.890625 -1.54687,0.875 -2.5625,2.15625 -1,1.265625 -1.48437,2.4375 v 10.671875 q 0,2.406255 0.3125,3.453125 0.32812,1.03125 1.15625,1.32813 0.82812,0.28125 2.375,0.5 l 0.84375,0.10937 v 1.21875 l -6.5625,-0.15625 z m 41.10312,0.4375 q -2.60937,0 -4.23439,-1.57812 -1.625,-1.57813 -1.625,-5.14063 V 84.369985 h -3.95312 V 83.04186 l 1.45312,-0.109375 q 2.17188,-0.15625 3.3125,-1.78125 1.15627,-1.625 1.53127,-4.5625 h 1.39062 v 6.453125 h 6.82813 v 1.328125 h -6.82813 v 16.000005 q 0,4.70312 3.29688,4.70312 1.39062,0 2.23437,-0.9375 0.85938,-0.9375 1.5625,-2.32812 l 1.17188,0.59375 q -0.32813,0.79687 -0.78125,1.46875 -0.45313,0.65625 -0.875,1.14062 -0.90625,1.01563 -2.0625,1.4375 -1.14063,0.4375 -2.42188,0.4375 z m 17.98444,0 q -2.03125,0 -3.45313,-0.45312 -1.40625,-0.45313 -2.20312,-0.82813 -0.85938,-0.4375 -1.0625,-0.4375 -0.21875,0 -0.35938,0.1875 -0.125,0.1875 -0.28125,0.9375 h -1.23437 l 0.21875,-3.51562 0.15625,-4.531255 h 1.17187 l 0.0469,0.90625 q 0.10937,1.484375 0.98437,2.984375 0.89063,1.48438 2.4375,2.5 1.54688,1.01563 3.57813,1.01563 2.17187,0 3.5,-1.10938 1.34375,-1.125 1.34375,-3.10937 0,-1.70313 -1.35938,-2.875005 -1.35937,-1.171875 -3.76562,-2.078125 l -1.90625,-0.75 q -2.78125,-1.0625 -4.20313,-2.65625 -1.40625,-1.609375 -1.40625,-4.109375 0,-2.140625 0.98438,-3.65625 1,-1.515625 2.625,-2.359375 1.625,-0.859375 3.48437,-0.859375 1.34375,0 2.26563,0.3125 0.9375,0.3125 1.57812,0.640625 0.53125,0.265625 0.90625,0.265625 0.53125,0 0.85938,-1.125 l 1.17187,0.0625 -0.21875,3.46875 v 3.71875 h -1.23437 q -0.35938,-2.5 -1.70313,-4.328125 -1.32812,-1.84375 -3.82812,-1.84375 -1.76563,0 -2.96875,1.125 -1.20313,1.109375 -1.20313,2.8125 0,1.65625 1.25,2.75 1.26563,1.09375 3.45313,1.9375 l 2.07812,0.8125 q 3.25,1.21875 4.5,2.953125 1.25,1.734375 1.25,4.140625 0,2.82813 -1.92187,4.96875 -1.90625,2.125 -5.53125,2.125 z"
       fill-rule="nonzero"
       id="path139" />
    <path
       fill="#000000"
       fill-opacity="0"
       d="M -8.107616,-11.332807 H 187.82939 V 82.399478 H -8.107616 Z"
       fill-rule="evenodd"
       id="path141" />
    <path
       fill="#3c78d8"
       d="m 16.095509,57.219067 q -3.484375,0 -6.3125,-1.890625 -2.8125,-1.90625 -4.46875,-5.1875 -1.65625,-3.28125 -1.65625,-7.265625 0,-3.984375 1.65625,-7.171875 1.65625,-3.203125 4.53125,-5.093752 2.890625,-1.90625 6.5,-1.90625 2.578125,0 4.71875,1.078125 2.15625,1.0625 3.5625,2.421877 V 19.20344 q 0,-3.1875 -1.328125,-4.078124 -1.3125,-0.890625 -3.640625,-0.890625 h -0.421875 v -1.421875 q 2.515625,0 4.84375,-0.140625 2.328125,-0.15625 4.84375,-0.59375 v 37.78125 q 0,3.4375 1.3125,4.359375 1.328125,0.921875 3.78125,0.921875 v 1.40625 h -2.515625 q -1.359375,0 -2.65625,0.09375 -1.28125,0.09375 -2.875,0.390625 l -0.796875,-4.28125 q -1.65625,1.953125 -3.953125,3.21875 -2.296875,1.25 -5.125,1.25 z m -7.53125,-14.34375 q 0,3.546875 0.875,6.375 0.890625,2.8125 2.703125,4.46875 1.8125,1.65625 4.578125,1.65625 2.625,0 4.5625,-1.1875 1.9375,-1.203125 3.34375,-2.921875 V 34.719067 q -1.046875,-1.59375 -3.140625,-2.875002 -2.078125,-1.296875 -4.59375,-1.296875 -2.8125,0 -4.65625,1.625002 -1.84375,1.625 -2.765625,4.421875 -0.90625,2.78125 -0.90625,6.28125 z m 27.470734,13.859375 v -1.421875 l 0.984375,-0.109375 q 1.78125,-0.25 2.71875,-0.578125 0.953125,-0.34375 1.3125,-1.53125 0.375,-1.203125 0.375,-3.96875 v -12.9375 q 0,-3.1875 -1.3125,-4.078125 -1.3125,-0.890627 -3.65625,-0.890627 h -0.421875 v -1.40625 q 2.515625,0 4.84375,-0.15625 2.328125,-0.15625 4.84375,-0.578125 v 20.046877 q 0,2.765625 0.359375,3.96875 0.375,1.1875 1.328125,1.53125 0.953125,0.328125 2.734375,0.578125 l 0.96875,0.109375 v 1.421875 l -7.53125,-0.1875 z m 6.8125,-34.84375 q -1.59375,0 -2.515625,-1.09375 -0.921875,-1.109375 -0.921875,-2.640625 0,-1.59375 0.921875,-2.656249 0.921875,-1.078125 2.515625,-1.078125 1.78125,0 2.609375,1.078125 0.828125,1.062499 0.828125,2.656249 0,1.53125 -0.828125,2.640625 -0.828125,1.09375 -2.609375,1.09375 z M 67.18657,48.453444 q -2.078125,0 -4.046871,-0.609375 -1.65625,0.359375 -3.09375,1.25 -1.4375,0.890625 -1.4375,2.359375 0,1.296875 0.90625,1.9375 0.921875,0.640625 2.390625,0.859375 1.484375,0.21875 3.203121,0.328125 l 2.6875,0.125 q 3.875,0.1875 7,0.828125 3.125,0.640625 4.984375,2.484375 1.875,1.84375 1.875,5.640625 0,3.499996 -2.0625,5.921871 -2.046875,2.421875 -5.328125,3.703125 -3.28125,1.296875 -7.078125,1.296875 -3.796871,0 -7.203121,-1.046875 -3.40625,-1.03125 -5.53125,-3.1875 -2.109375,-2.140625 -2.109375,-5.515625 0,-1.968746 0.953125,-3.265621 0.953125,-1.28125 2.484375,-1.28125 1.046875,0 1.78125,0.578125 0.734375,0.59375 0.734375,1.765625 0,1.03125 -0.375,1.671871 -0.359375,0.65625 -0.765625,1.328125 -0.390625,0.671875 -0.390625,1.71875 0,2.078125 1.4375,3.328125 1.4375,1.265625 3.796875,1.8125 2.374996,0.5625 5.187496,0.5625 3.125,0 5.765625,-0.921875 2.640625,-0.921875 4.265625,-2.734375 1.625,-1.796875 1.625,-4.4375 0,-2.765621 -2.1875,-4.031246 -2.171875,-1.25 -6.703125,-1.5 l -6.265621,-0.296875 q -1.828125,-0.125 -3.890625,-0.5 -2.046875,-0.359375 -3.46875,-1.5 -1.40625,-1.125 -1.40625,-3.40625 0,-2.390625 1.984375,-4.15625 2,-1.78125 4.453125,-2.453125 -2.453125,-1.296875 -3.984375,-3.5 -1.53125,-2.203125 -1.53125,-5.03125 0,-2.828125 1.5,-5.03125 1.5,-2.203127 4.078125,-3.515627 2.578125,-1.328125 5.765621,-1.328125 3.6875,0 6.5625,1.78125 1.296875,-1.78125 3.125,-2.546875 1.84375,-0.765625 3.6875,-0.765625 1.890625,0 3.265625,0.953125 1.390625,0.953125 1.390625,2.546875 0,1.28125 -0.828125,1.984377 -0.828125,0.703125 -1.8125,0.703125 -2.265625,0 -2.75,-2.578127 -0.125,-0.734375 -0.53125,-1.21875 -0.390625,-0.484375 -1.1875,-0.484375 -0.984375,0 -1.8125,0.703125 -0.828125,0.703125 -1.375,1.5 1.65625,1.343752 2.625,3.250002 0.984375,1.90625 0.984375,4.046875 0,2.765625 -1.5,5 -1.5,2.234375 -4.078125,3.5625 -2.578125,1.3125 -5.765625,1.3125 z m 0,-1.53125 q 3.625,0 5.125,-2.390625 1.5,-2.390625 1.5,-5.953125 0,-3.5625 -1.5,-5.953125 -1.5,-2.390627 -5.125,-2.390627 -3.562496,0 -5.093746,2.390627 -1.53125,2.390625 -1.53125,5.953125 0,3.5625 1.53125,5.953125 1.53125,2.390625 5.093746,2.390625 z m 20.24144,9.8125 v -1.421875 l 0.984375,-0.109375 q 1.78125,-0.25 2.71875,-0.578125 0.953125,-0.34375 1.3125,-1.53125 0.375,-1.203125 0.375,-3.96875 v -12.9375 q 0,-3.1875 -1.3125,-4.078125 -1.3125,-0.890627 -3.65625,-0.890627 H 87.42801 v -1.40625 q 2.515625,0 4.84375,-0.15625 2.328125,-0.15625 4.84375,-0.578125 v 20.046877 q 0,2.765625 0.359375,3.96875 0.375,1.1875 1.328125,1.53125 0.953125,0.328125 2.73438,0.578125 l 0.96875,0.109375 v 1.421875 l -7.531255,-0.1875 z m 6.8125,-34.84375 q -1.59375,0 -2.515625,-1.09375 -0.921875,-1.109375 -0.921875,-2.640625 0,-1.59375 0.921875,-2.656249 0.921875,-1.078125 2.515625,-1.078125 1.78125,0 2.609375,1.078125 0.828125,1.062499 0.828125,2.656249 0,1.53125 -0.828125,2.640625 -0.828125,1.09375 -2.609375,1.09375 z m 22.01096,35.328125 q -3,0 -4.875,-1.796875 -1.875,-1.8125 -1.875,-5.921875 V 31.344067 h -4.53125 v -1.53125 l 1.65625,-0.125 q 2.51562,-0.1875 3.82812,-2.046875 1.3125,-1.875 1.75,-5.25 h 1.59375 v 7.421875 h 7.84375 v 1.53125 h -7.84375 v 18.390627 q 0,5.40625 3.79688,5.40625 1.59375,0 2.57812,-1.078125 0.98438,-1.078125 1.78125,-2.671875 l 1.34375,0.671875 q -0.35937,0.921875 -0.89062,1.6875 -0.51563,0.765625 -1,1.328125 -1.04688,1.15625 -2.375,1.640625 -1.3125,0.5 -2.78125,0.5 z m 16.92692,0 q -2.9375,0 -4.875,-1.5 -1.9375,-1.5 -1.9375,-4.203125 0,-2.703125 2.39063,-4.8125 2.39062,-2.109375 5.59375,-3.828125 2.39062,-1.359375 4.78125,-2.328125 2.39062,-0.984375 4.10937,-1.65625 v -1.96875 q 0,-3.375 -1.26562,-5.031252 -1.25,-1.65625 -4.75,-1.65625 -1.65625,0 -3.25,0.4375 -1.59375,0.421875 -1.59375,1.593752 0,0.234375 0.0937,0.546875 0.0937,0.3125 0.15625,0.609375 0.29687,0.796875 0.29687,1.65625 0,1.171875 -0.82812,1.8125 -0.82813,0.640625 -1.98438,0.640625 -1.10937,0 -1.84375,-0.828125 -0.73437,-0.828125 -0.73437,-1.984375 0,-2.21875 1.6875,-3.531252 1.6875,-1.3125 4.14062,-1.890625 2.45313,-0.59375 4.71875,-0.59375 4.90625,0 7.17188,2.265625 2.26562,2.265627 2.26562,7.421877 v 11.046875 q 0,2.6875 0.39063,4.171875 0.40625,1.46875 1.82812,1.46875 0.92188,0 1.59375,-0.671875 0.67188,-0.6875 0.92188,-1.484375 l 1.09375,0.4375 q -0.48438,1.78125 -1.75,2.828125 -1.25,1.03125 -3.45313,1.03125 -2.70312,0 -3.71875,-1.5625 -1.01562,-1.5625 -1.125,-4.140625 -1.71875,2.765625 -4.35937,4.234375 -2.64063,1.46875 -5.76563,1.46875 z m -2.03125,-6 q 0,1.703125 1.01563,2.71875 1.01562,1.015625 2.98437,1.015625 1.76563,0 3.39063,-0.859375 1.625,-0.859375 2.84375,-2.171875 1.23437,-1.328125 1.85937,-2.859375 v -8.953125 q -2.03125,0.859375 -4.15625,2 -2.10937,1.125 -3.92187,2.546875 -1.79688,1.40625 -2.90625,3.03125 -1.10938,1.625 -1.10938,3.53125 z m 23.12894,5.515625 v -1.421875 l 0.98437,-0.109375 q 1.78125,-0.25 2.71875,-0.578125 0.95313,-0.34375 1.3125,-1.53125 0.375,-1.203125 0.375,-3.96875 V 19.203442 q 0,-3.1875 -1.3125,-4.078124 -1.3125,-0.890625 -3.65625,-0.890625 h -0.42187 v -1.421875 q 2.51562,0 4.84375,-0.140625 2.32812,-0.15625 4.84375,-0.59375 v 37.046875 q 0,2.765625 0.35937,3.96875 0.375,1.1875 1.32813,1.53125 0.95312,0.328125 2.73437,0.578125 l 0.96875,0.109375 v 1.421875 l -7.53125,-0.1875 z"
       fill-rule="nonzero"
       id="path143" />
    <path
       fill="#b7b7b7"
       d="m 235.01,43.27034 v 0 c 0,-3.957314 3.20804,-7.165352 7.16536,-7.165352 v 0 c 1.90037,0 3.7229,0.754917 5.06667,2.098682 1.34376,1.343766 2.09869,3.166302 2.09869,5.06667 v 0 c 0,3.957317 -3.20804,7.165356 -7.16536,7.165356 v 0 c -3.95732,0 -7.16536,-3.208039 -7.16536,-7.165356 z"
       fill-rule="evenodd"
       id="path145" />
    <path
       fill="#b7b7b7"
       d="m 249.34071,9.645669 v 0 c 0,-2.043888 1.65689,-3.700787 3.70078,-3.700787 v 0 c 0.98152,0 1.92282,0.3899031 2.61685,1.0839357 0.69404,0.6940322 1.08394,1.6353421 1.08394,2.6168513 v 0 c 0,2.043889 -1.6569,3.700788 -3.70079,3.700788 v 0 c -2.04389,0 -3.70078,-1.656899 -3.70078,-3.700788 z"
       fill-rule="evenodd"
       id="path147" />
    <path
       fill="#b7b7b7"
       d="m 269.16486,70.23097 v 0 c 0,-2.043892 1.65689,-3.70079 3.70078,-3.70079 v 0 c 0.9815,0 1.92282,0.389907 2.61685,1.083938 0.69403,0.694031 1.08395,1.635338 1.08395,2.616852 v 0 c 0,2.043884 -1.65692,3.700783 -3.7008,3.700783 v 0 c -2.04389,0 -3.70078,-1.656899 -3.70078,-3.700783 z"
       fill-rule="evenodd"
       id="path149" />
    <path
       fill="#b7b7b7"
       d="m 232.79527,2.7454069 h 3.84253 V 23.942257 h -3.84253 z"
       fill-rule="evenodd"
       id="path151" />
    <path
       fill="#b7b7b7"
       d="m 205.75073,75.75604 27.06293,-51.93701 h 3.8347 l -27.06293,51.93701 z"
       fill-rule="evenodd"
       id="path153" />
    <path
       fill="#b7b7b7"
       d="m 259.05658,2.7463257 h 3.77954 V 23.943176 h -3.77954 z"
       fill-rule="evenodd"
       id="path155" />
    <path
       fill="#b7b7b7"
       d="M 304.43765,107.37664 262.7659,23.81759 h -3.74555 l 41.67176,83.55905 z"
       fill-rule="evenodd"
       id="path157" />
    <path
       fill="#b7b7b7"
       d="m 294.12534,128.51099 6.55121,-21.19685 h 3.74798 l -6.5512,21.19685 z"
       fill-rule="evenodd"
       id="path159" />
    <path
       fill="#b7b7b7"
       d="m 195.93373,125.14567 h 101.00786 v 3.37008 H 195.93373 Z"
       fill-rule="evenodd"
       id="path161" />
    <path
       fill="#b7b7b7"
       d="m 199.23294,128.49492 -4.45673,-13.88976 h -3.76374 l 4.45672,13.88976 z"
       fill-rule="evenodd"
       id="path163" />
    <path
       fill="#3c78d8"
       d="m 251.1806,58.519684 v 0 c 0,-4.966213 4.02591,-8.992126 8.99213,-8.992126 v 0 c 2.38485,0 4.67202,0.947384 6.35839,2.633736 1.68634,1.686348 2.63373,3.973533 2.63373,6.358391 v 0 c 0,4.966217 -4.02591,8.992126 -8.99212,8.992126 v 0 c -4.96622,0 -8.99213,-4.02591 -8.99213,-8.992127 z"
       fill-rule="evenodd"
       id="path165" />
    <path
       fill="#3c78d8"
       d="m 238.96313,21.024935 v 0 c 0,-2.461365 1.99533,-4.456694 4.4567,-4.456694 v 0 c 1.18197,0 2.31556,0.469544 3.15135,1.305336 0.83578,0.835791 1.30533,1.969368 1.30533,3.151358 v 0 c 0,2.461363 -1.99532,4.456692 -4.45668,4.456692 v 0 c -2.46137,0 -4.4567,-1.995329 -4.4567,-4.456692 z"
       fill-rule="evenodd"
       id="path167" />
    <path
       fill="#3c78d8"
       d="m 220.95226,65.53018 v 0 c 0,-3.270218 2.65105,-5.921257 5.92126,-5.921257 v 0 c 1.57042,0 3.07651,0.623844 4.18697,1.734295 1.11044,1.110451 1.73428,2.616547 1.73428,4.186962 v 0 c 0,3.270225 -2.65103,5.921265 -5.92125,5.921265 v 0 c -3.27021,0 -5.92126,-2.65104 -5.92126,-5.921265 z"
       fill-rule="evenodd"
       id="path169" />
    <path
       fill="#3c78d8"
       d="m 295.9449,115.54068 -2.45963,7.55906 H 199.5699 l -2.45964,-7.55906 z"
       fill-rule="evenodd"
       id="path171" />
    <path
       fill="#3c78d8"
       d="m 204.74997,120.7495 c -3.95801,-0.45844 -5.18678,-1.68898 -6.24934,-2.87664 -1.06255,-1.18766 -2.1881,-3.20778 -0.12598,-4.24934 2.06212,-1.04156 7.43613,-2.16667 12.49869,-2 5.06254,0.16666 13.12642,3.16666 17.87663,3 4.75021,-0.16667 6.24979,-4.10412 10.62468,-4 4.37488,0.10411 9.72878,4.458 15.62466,4.62467 5.89589,0.16667 13.81322,-2.87489 19.75066,-3.62467 5.93744,-0.74979 12.49912,-1.72835 15.87402,-0.87402 3.37488,0.85433 6.89588,4.43744 4.37534,6 -2.52057,1.56256 -7.3736,2.72966 -19.49869,3.37533 -12.12512,0.64567 -41.4602,0.39457 -53.25198,0.49869 -11.79178,0.10411 -13.54068,0.58443 -17.49869,0.12598 z"
       fill-rule="evenodd"
       id="path173" />
  </g>
  <rect
     style="fill:none;stroke:none;stroke-width:1.06533;stroke-linecap:round;stroke-linejoin:bevel;paint-order:fill markers stroke"
     id="rect456"
     width="341.01205"
     height="178.87094"
     x="0"
     y="0"
     ry="0"
     rx="0" />
</svg>
