<?xml version="1.0" encoding="UTF-8" standalone="no"?>
<svg
   version="1.1"
   viewBox="0 0 134.14841 146.54964"
   fill="none"
   stroke="none"
   stroke-linecap="square"
   stroke-miterlimit="10"
   id="svg177"
   sodipodi:docname="logo-square.svg"
   width="134.14841"
   height="146.54964"
   inkscape:version="1.2.1 (9c6d41e, 2022-07-14)"
   xmlns:inkscape="http://www.inkscape.org/namespaces/inkscape"
   xmlns:sodipodi="http://sodipodi.sourceforge.net/DTD/sodipodi-0.dtd"
   xmlns="http://www.w3.org/2000/svg"
   xmlns:svg="http://www.w3.org/2000/svg">
  <defs
     id="defs181" />
  <sodipodi:namedview
     id="namedview179"
     pagecolor="#ffffff"
     bordercolor="#000000"
     borderopacity="0.25"
     inkscape:showpageshadow="2"
     inkscape:pageopacity="0.0"
     inkscape:pagecheckerboard="0"
     inkscape:deskcolor="#d1d1d1"
     showgrid="false"
     inkscape:zoom="2.0419972"
     inkscape:cx="-40.401623"
     inkscape:cy="150.09815"
     inkscape:window-width="1512"
     inkscape:window-height="945"
     inkscape:window-x="0"
     inkscape:window-y="37"
     inkscape:window-maximized="0"
     inkscape:current-layer="svg177" />
  <g
     clip-path="none"
     id="g175"
     transform="translate(-180.70638,7.6442397)">
    <path
       fill="#b7b7b7"
       d="m 235.01,43.27034 v 0 c 0,-3.957314 3.20804,-7.165352 7.16536,-7.165352 v 0 c 1.90037,0 3.7229,0.754917 5.06667,2.098682 1.34376,1.343766 2.09869,3.166302 2.09869,5.06667 v 0 c 0,3.957317 -3.20804,7.165356 -7.16536,7.165356 v 0 c -3.95732,0 -7.16536,-3.208039 -7.16536,-7.165356 z"
       fill-rule="evenodd"
       id="path145" />
    <path
       fill="#b7b7b7"
       d="m 249.34071,9.645669 v 0 c 0,-2.043888 1.65689,-3.700787 3.70078,-3.700787 v 0 c 0.98152,0 1.92282,0.3899031 2.61685,1.0839357 0.69404,0.6940322 1.08394,1.6353421 1.08394,2.6168513 v 0 c 0,2.043889 -1.6569,3.700788 -3.70079,3.700788 v 0 c -2.04389,0 -3.70078,-1.656899 -3.70078,-3.700788 z"
       fill-rule="evenodd"
       id="path147" />
    <path
       fill="#b7b7b7"
       d="m 269.16486,70.23097 v 0 c 0,-2.043892 1.65689,-3.70079 3.70078,-3.70079 v 0 c 0.9815,0 1.92282,0.389907 2.61685,1.083938 0.69403,0.694031 1.08395,1.635338 1.08395,2.616852 v 0 c 0,2.043884 -1.65692,3.700783 -3.7008,3.700783 v 0 c -2.04389,0 -3.70078,-1.656899 -3.70078,-3.700783 z"
       fill-rule="evenodd"
       id="path149" />
    <path
       fill="#b7b7b7"
       d="m 232.79527,2.7454069 h 3.84253 V 23.942257 h -3.84253 z"
       fill-rule="evenodd"
       id="path151" />
    <path
       fill="#b7b7b7"
       d="m 259.05658,2.7463257 h 3.77954 V 23.943176 h -3.77954 z"
       fill-rule="evenodd"
       id="path155" />
    <path
       fill="#b7b7b7"
       d="M 304.43765,107.37664 262.7659,23.81759 h -3.74555 l 41.67176,83.55905 z"
       fill-rule="evenodd"
       id="path157" />
    <path
       fill="#b7b7b7"
       d="m 294.12534,128.51099 6.55121,-21.19685 h 3.74798 l -6.5512,21.19685 z"
       fill-rule="evenodd"
       id="path159" />
    <path
       fill="#b7b7b7"
       d="m 191.12351,107.50131 41.67176,-83.559053 h 3.74555 l -41.67177,83.559053 z"
       fill-rule="evenodd"
       id="path157-6" />
    <path
       fill="#b7b7b7"
       d="m 201.43583,128.51575 -6.55122,-21.07694 h -3.74797 l 6.5512,21.07694 z"
       fill-rule="evenodd"
       id="path159-2"
       style="stroke-width:1" />
    <path
       fill="#b7b7b7"
       d="m 197.65078,125.14567 h 99.29081 v 3.37008 h -99.29081 z"
       fill-rule="evenodd"
       id="path161"
       style="stroke-width:1" />
    <path
       fill="#3c78d8"
       d="m 251.1806,58.519684 v 0 c 0,-4.966213 4.02591,-8.992126 8.99213,-8.992126 v 0 c 2.38485,0 4.67202,0.947384 6.35839,2.633736 1.68634,1.686348 2.63373,3.973533 2.63373,6.358391 v 0 c 0,4.966217 -4.02591,8.992126 -8.99212,8.992126 v 0 c -4.96622,0 -8.99213,-4.02591 -8.99213,-8.992127 z"
       fill-rule="evenodd"
       id="path165" />
    <path
       fill="#3c78d8"
       d="m 238.96313,21.024935 v 0 c 0,-2.461365 1.99533,-4.456694 4.4567,-4.456694 v 0 c 1.18197,0 2.31556,0.469544 3.15135,1.305336 0.83578,0.835791 1.30533,1.969368 1.30533,3.151358 v 0 c 0,2.461363 -1.99532,4.456692 -4.45668,4.456692 v 0 c -2.46137,0 -4.4567,-1.995329 -4.4567,-4.456692 z"
       fill-rule="evenodd"
       id="path167" />
    <path
       fill="#3c78d8"
       d="m 220.95226,65.53018 v 0 c 0,-3.270218 2.65105,-5.921257 5.92126,-5.921257 v 0 c 1.57042,0 3.07651,0.623844 4.18697,1.734295 1.11044,1.110451 1.73428,2.616547 1.73428,4.186962 v 0 c 0,3.270225 -2.65103,5.921265 -5.92125,5.921265 v 0 c -3.27021,0 -5.92126,-2.65104 -5.92126,-5.921265 z"
       fill-rule="evenodd"
       id="path169" />
    <path
       fill="#b7b7b7"
       d="m 216.16787,90.205554 v 0 c 0,-5.090345 4.12656,-9.216914 9.21693,-9.216914 v 0 c 2.44449,0 4.78883,0.971065 6.51736,2.69958 1.7285,1.728502 2.69957,4.072867 2.69957,6.517334 v 0 c 0,5.09037 -4.12656,9.216928 -9.21693,9.216928 v 0 c -5.09037,0 -9.21693,-4.126558 -9.21693,-9.216928 z"
       fill-rule="evenodd"
       id="path145-7"
       style="stroke-width:1" />
    <path
       fill="#3c78d8"
       d="m 295.9449,115.54068 -2.39712,7.55906 h -91.52839 l -2.39713,-7.55906 z"
       fill-rule="evenodd"
       id="path171"
       style="stroke-width:1" />
    <path
       fill="#3c78d8"
       d="m 206.96735,120.7495 c -3.86172,-0.45844 -5.0606,-1.68898 -6.0973,-2.87664 -1.0367,-1.18766 -2.13487,-3.20778 -0.12292,-4.24934 2.01194,-1.04156 7.25521,-2.16667 12.19461,-2 4.93937,0.16666 12.80706,3.16666 17.44168,3 4.63465,-0.16667 6.09775,-4.10412 10.36621,-4 4.26843,0.10411 9.49208,4.458 15.2445,4.62467 5.75246,0.16667 13.47715,-2.87489 19.27014,-3.62467 5.79298,-0.74979 12.19503,-1.72835 15.48782,-0.87402 3.29277,0.85433 6.7281,4.43744 4.26889,6 -2.45924,1.56256 -7.19421,2.72966 -19.0243,3.37533 -11.83011,0.64567 -40.45149,0.39457 -51.95638,0.49869 -11.50489,0.10411 -13.21124,0.58443 -17.07295,0.12598 z"
       fill-rule="evenodd"
       id="path173"
       style="stroke-width:1" />
    <path
       fill="#b7b7b7"
       d="m 245.89574,100.99734 v 0 c 0,-3.957311 3.20805,-7.165349 7.16536,-7.165349 v 0 c 1.90037,0 3.7229,0.754917 5.06667,2.098682 1.34376,1.343766 2.09869,3.166302 2.09869,5.066667 v 0 c 0,3.95732 -3.20804,7.16536 -7.16536,7.16536 v 0 c -3.95732,0 -7.16536,-3.20804 -7.16536,-7.16536 z"
       fill-rule="evenodd"
       id="path145-4" />
    <path
       fill="#3c78d8"
       d="m 240.45558,80.805271 v 0 c 0,-3.270218 2.65105,-5.921257 5.92126,-5.921257 v 0 c 1.57042,0 3.07651,0.623844 4.18697,1.734295 1.11044,1.110451 1.73428,2.616547 1.73428,4.186962 v 0 c 0,3.270225 -2.65103,5.921265 -5.92125,5.921265 v 0 c -3.27021,0 -5.92126,-2.65104 -5.92126,-5.921265 z"
       fill-rule="evenodd"
       id="path169-1" />
    <path
       fill="#3c78d8"
       d="m 274.57321,95.705626 v 0 c 0,-3.270218 2.65105,-5.921257 5.92126,-5.921257 v 0 c 1.57042,0 3.07651,0.623844 4.18697,1.734295 1.11044,1.110451 1.73428,2.616547 1.73428,4.186962 v 0 c 0,3.270225 -2.65103,5.921264 -5.92125,5.921264 v 0 c -3.27021,0 -5.92126,-2.651039 -5.92126,-5.921264 z"
       fill-rule="evenodd"
       id="path169-3" />
    <path
       fill="#3c78d8"
       d="m 204.44246,104.18759 v 0 c 0,-2.72905 2.21234,-4.941391 4.94139,-4.941391 v 0 c 1.31054,0 2.5674,0.520608 3.49409,1.447291 0.92669,0.9267 1.44729,2.18356 1.44729,3.4941 v 0 c 0,2.72906 -2.21233,4.9414 -4.94138,4.9414 v 0 c -2.72905,0 -4.94139,-2.21234 -4.94139,-4.9414 z"
       fill-rule="evenodd"
       id="path169-8"
       style="stroke-width:1" />
  </g>
  <rect
     style="fill:none;stroke:none;stroke-width:1.06533;stroke-linecap:round;stroke-linejoin:bevel;paint-order:fill markers stroke"
     id="rect456"
     width="134.14841"
     height="146.54964"
     x="0"
     y="0"
     ry="0"
     rx="0" />
</svg>
